<?xml version="1.0" encoding="iso-8859-1"?>
<!-- Uploaded to: SVG Repo, www.svgrepo.com, Generator: SVG Repo Mixer Tools -->
<svg version="1.1" id="Layer_1" xmlns="http://www.w3.org/2000/svg" xmlns:xlink="http://www.w3.org/1999/xlink" 
	 viewBox="0 0 512 512" xml:space="preserve">
<path style="fill:#80D0E1;" d="M450.297,512h-68.014c-10.345,0-18.732-8.387-18.732-18.732V335.089
	c0-10.345,8.387-18.732,18.732-18.732h68.014c10.345,0,18.732,8.387,18.732,18.732v158.179C469.028,503.613,460.641,512,450.297,512
	z"/>
<path style="fill:#20B8AE;" d="M469.028,353.821H363.551v-176.91c0-10.345,8.387-18.732,18.732-18.732h68.014
	c10.345,0,18.732,8.387,18.732,18.732V353.821z"/>
<path style="fill:#FF9392;" d="M469.028,195.643H363.551V18.732C363.551,8.387,371.938,0,382.283,0h68.014
	c10.345,0,18.732,8.387,18.732,18.732V195.643z"/>
<path style="fill:#FFDA79;" d="M401.015,512H61.703c-10.345,0-18.732-8.387-18.732-18.732V18.732C42.972,8.387,51.359,0,61.703,0
	h339.311V512z"/>
<rect x="221.996" style="fill:#FFD155;" width="179.025" height="512"/>
<path style="fill:#FFC72D;" d="M320.045,372.846l-69.03-119.564c26.462-11.313,45.055-37.598,45.055-68.148
	c0-40.846-33.23-74.076-74.076-74.076s-74.076,33.23-74.076,74.076c0,30.551,18.593,56.837,45.055,68.148l-69.03,119.564
	c-7.207,12.482,1.834,28.098,16.222,28.098h163.66C318.234,400.943,327.24,385.306,320.045,372.846z"/>
<path style="fill:#FFBE00;" d="M320.045,372.846l-69.03-119.564c26.462-11.313,45.055-37.598,45.055-68.148
	c0-40.846-33.23-74.076-74.076-74.076h-0.001v289.888h81.831C318.234,400.943,327.24,385.306,320.045,372.846z"/>
</svg>